<?xml version="1.0" encoding="UTF-8"?>
<svg xmlns="http://www.w3.org/2000/svg" xmlns:xlink="http://www.w3.org/1999/xlink" width="777.85pt" height="225.89pt" viewBox="0 0 777.85 225.89" version="1.1">
<defs>
<clipPath id="clip1">
  <path d="M 758 19 L 777.851563 19 L 777.851563 39 L 758 39 Z M 758 19 "/>
</clipPath>
<clipPath id="clip2">
  <path d="M 0 0 L 226 0 L 226 225.890625 L 0 225.890625 Z M 0 0 "/>
</clipPath>
</defs>
<g id="surface1">
<path style=" stroke:none;fill-rule:nonzero;fill:rgb(13.699341%,12.199402%,12.5%);fill-opacity:1;" d="M 400.015625 132.941406 L 400.015625 92.289063 L 509.039063 92.320313 C 520.109375 92.320313 529.132813 101.289063 529.132813 112.351563 L 529.132813 160.664063 C 529.132813 185.53125 509.253906 206.109375 483.988281 206.125 L 414.191406 206.175781 C 362.464844 206.175781 320.609375 164.425781 320.609375 112.828125 C 320.609375 61.273438 362.71875 19.484375 414.273438 19.484375 L 522.335938 19.484375 L 522.335938 62.371094 L 414.25 62.371094 C 386.382813 62.371094 363.503906 84.964844 363.503906 112.828125 C 363.503906 140.652344 386.050781 163.257813 414.175781 163.253906 L 486.277344 163.253906 L 486.277344 132.941406 L 400.015625 132.941406 "/>
<path style=" stroke:none;fill-rule:nonzero;fill:rgb(13.699341%,12.199402%,12.5%);fill-opacity:1;" d="M 306.4375 19.253906 L 264.023438 19.253906 L 264.023438 186.351563 C 264.023438 197.335938 273 206.253906 283.984375 206.253906 L 306.464844 206.253906 L 306.464844 33.0625 C 306.464844 32.976563 306.4375 19.253906 306.4375 19.253906 "/>
<path style=" stroke:none;fill-rule:nonzero;fill:rgb(13.699341%,12.199402%,12.5%);fill-opacity:1;" d="M 729.023438 19.359375 L 706.253906 19.359375 L 706.273438 163.410156 C 706.242188 163.839844 706.167969 164.242188 705.941406 164.585938 C 705.433594 165.441406 704.496094 166.019531 703.425781 166.019531 C 702.511719 166.019531 701.707031 165.605469 700.8125 164.433594 L 629.476563 39.367188 C 621.546875 26.078125 606.996094 17.339844 590.6875 17.339844 L 589.921875 17.339844 C 565.03125 17.339844 544.847656 37.515625 544.847656 62.410156 L 544.847656 186.351563 C 544.847656 197.335938 553.789063 206.253906 564.773438 206.253906 L 587.359375 206.253906 L 587.34375 62.410156 C 587.34375 61.921875 587.53125 61.46875 587.769531 61.085938 C 588.269531 60.199219 589.21875 59.605469 590.300781 59.605469 C 591.191406 59.605469 592.226563 59.929688 592.820313 61.027344 L 664.585938 186.90625 C 672.511719 200.195313 686.734375 208.300781 703.042969 208.300781 L 703.8125 208.300781 C 728.703125 208.300781 748.917969 188.121094 748.917969 163.226563 L 748.917969 39.265625 C 748.917969 28.28125 740.011719 19.359375 729.023438 19.359375 "/>
<path style=" stroke:none;fill-rule:nonzero;fill:rgb(13.699341%,12.199402%,12.5%);fill-opacity:1;" d="M 768.605469 28.609375 L 766.710938 28.609375 L 766.710938 25.367188 L 768.605469 25.367188 C 769.621094 25.367188 770.308594 26.105469 770.308594 26.988281 C 770.308594 27.871094 769.621094 28.609375 768.605469 28.609375 Z M 770.367188 29.535156 C 771.304688 29.152344 772.140625 28.304688 772.140625 26.988281 C 772.140625 25.382813 770.890625 23.945313 768.90625 23.945313 L 764.875 23.945313 L 764.875 33.9375 L 766.710938 33.9375 L 766.710938 29.867188 L 768.25 29.867188 L 770.160156 33.9375 L 772.253906 33.9375 L 770.367188 29.535156 "/>
<g clip-path="url(#clip1)" clip-rule="nonzero">
<path style=" stroke:none;fill-rule:nonzero;fill:rgb(13.699341%,12.199402%,12.5%);fill-opacity:1;" d="M 768.222656 36.882813 C 763.816406 36.882813 760.429688 33.484375 760.429688 28.957031 C 760.429688 24.421875 763.816406 21.023438 768.222656 21.023438 C 772.628906 21.023438 776.019531 24.421875 776.019531 28.957031 C 776.019531 33.484375 772.628906 36.882813 768.222656 36.882813 Z M 768.222656 19.328125 C 762.90625 19.328125 758.601563 23.636719 758.601563 28.957031 C 758.601563 34.273438 762.90625 38.578125 768.222656 38.578125 C 773.539063 38.578125 777.847656 34.273438 777.847656 28.957031 C 777.847656 23.636719 773.539063 19.328125 768.222656 19.328125 "/>
</g>
<path style=" stroke:none;fill-rule:nonzero;fill:rgb(83.099365%,12.5%,16.099548%);fill-opacity:1;" d="M 50.660156 71.964844 C 56.25 63.5 63.507813 56.242188 71.972656 50.652344 C 73.195313 39.53125 74.859375 29.375 76.910156 20.40625 C 51.085938 30.5 30.507813 51.078125 20.414063 76.902344 C 29.390625 74.847656 39.539063 73.1875 50.660156 71.964844 "/>
<path style=" stroke:none;fill-rule:nonzero;fill:rgb(83.099365%,12.5%,16.099548%);fill-opacity:1;" d="M 153.875 50.40625 C 153.890625 50.484375 153.894531 50.558594 153.90625 50.636719 C 162.382813 56.226563 169.648438 63.488281 175.242188 71.964844 C 186.363281 73.1875 196.515625 74.847656 205.488281 76.898438 C 195.367188 51.011719 174.710938 30.394531 148.792969 20.328125 C 150.867188 29.253906 152.582031 39.34375 153.875 50.40625 "/>
<path style=" stroke:none;fill-rule:nonzero;fill:rgb(83.099365%,12.5%,16.099548%);fill-opacity:1;" d="M 71.972656 175.226563 C 63.5 169.636719 56.238281 162.371094 50.648438 153.898438 C 50.570313 153.886719 50.492188 153.882813 50.40625 153.867188 C 39.210938 152.550781 29.183594 150.855469 20.351563 148.8125 C 30.421875 174.714844 51.03125 195.359375 76.910156 205.476563 C 74.859375 196.507813 73.195313 186.351563 71.972656 175.226563 "/>
<path style=" stroke:none;fill-rule:nonzero;fill:rgb(83.099365%,12.5%,16.099548%);fill-opacity:1;" d="M 175.492188 153.867188 C 175.410156 153.882813 175.335938 153.886719 175.253906 153.898438 C 169.660156 162.386719 162.390625 169.652344 153.90625 175.242188 C 153.894531 175.324219 153.890625 175.40625 153.875 175.488281 C 152.582031 186.546875 150.867188 196.632813 148.796875 205.550781 C 174.765625 195.46875 195.453125 174.785156 205.546875 148.824219 C 196.707031 150.871094 186.683594 152.558594 175.492188 153.867188 "/>
<g clip-path="url(#clip2)" clip-rule="nonzero">
<path style=" stroke:none;fill-rule:nonzero;fill:rgb(83.099365%,12.5%,16.099548%);fill-opacity:1;" d="M 225.898438 94.476563 C 208.351563 86.355469 182.042969 83.277344 173.101563 82.320313 C 171.234375 82.003906 169.550781 81.847656 167.945313 81.847656 L 140.128906 112.941406 L 167.945313 144.03125 C 169.851563 144.03125 171.820313 143.847656 173.929688 143.449219 C 182.664063 142.433594 208.539063 139.226563 225.898438 131.199219 Z M 57.964844 81.847656 C 56.355469 81.847656 54.675781 82.003906 52.800781 82.320313 C 43.859375 83.277344 17.550781 86.355469 0 94.484375 L 0 131.1875 C 17.363281 139.226563 43.246094 142.429688 51.980469 143.449219 C 54.078125 143.847656 56.054688 144.03125 57.964844 144.03125 L 85.773438 112.941406 Z M 81.863281 167.9375 C 81.863281 169.539063 82.015625 171.234375 82.328125 173.097656 C 83.285156 182.03125 86.363281 208.347656 94.488281 225.890625 L 131.195313 225.890625 C 139.222656 208.53125 142.445313 182.652344 143.453125 173.921875 C 143.851563 171.816406 144.046875 169.84375 144.046875 167.9375 L 112.957031 140.121094 Z M 94.488281 -0.00390625 L 131.195313 -0.00390625 C 139.222656 17.363281 142.445313 43.238281 143.453125 51.972656 C 143.851563 54.078125 144.046875 56.039063 144.046875 57.949219 L 112.957031 85.773438 L 81.863281 57.949219 C 81.863281 56.351563 82.015625 54.664063 82.328125 52.796875 C 83.285156 43.855469 86.363281 17.542969 94.488281 -0.00390625 "/>
</g>
</g>
</svg>
